<svg xmlns="http://www.w3.org/2000/svg" viewBox="0 0 128 128" width="128" height="128" role="img"><defs>
  <linearGradient id="hot" x1="0" y1="0" x2="1" y2="1"><stop stop-color="#ffe58b"/><stop offset="1" stop-color="#ff824e"/></linearGradient>
  <linearGradient id="cool" x1="0" y1="0" x2="1" y2="1"><stop stop-color="#c0f4ff"/><stop offset="1" stop-color="#478aff"/></linearGradient>
  <linearGradient id="glass" x1="0" y1="0" x2="1" y2="1"><stop stop-color="#ffffff"/><stop offset="1" stop-color="#d5eaff"/></linearGradient>
  <filter id="shade" x="-30%" y="-30%" width="160%" height="170%"><feGaussianBlur in="SourceAlpha" stdDeviation="2.5" result="blur"/><feOffset in="blur" dy="3" result="offset"/><feComponentTransfer in="offset" result="shadow"><feFuncA type="linear" slope=".22"/></feComponentTransfer><feMerge><feMergeNode in="shadow"/><feMergeNode in="SourceGraphic"/></feMerge></filter>
</defs><g><path d="M95 14a23 23 0 1 0 17 36 23 23 0 0 1-17-36Z" fill="url(#cool)" stroke="#c7ebff" stroke-width="2"/><circle cx="107" cy="14" r="2.5" fill="#b9dcff"/><path d="M114 38v8m-4-4h8" stroke="#b9dcff" stroke-width="2.5" stroke-linecap="round"/><g filter="url(#shade)"><path d="M51 72V33a13 13 0 0 1 26 0v39a22 22 0 1 1-26 0Z" fill="url(#glass)" stroke="#8aadd9" stroke-width="2.5"/><path d="M64 38v48" stroke="url(#cool)" stroke-width="9" stroke-linecap="round"/><circle cx="64" cy="90" r="13" fill="url(#cool)"/><path d="M58 32v38" stroke="#fff" stroke-width="3" stroke-linecap="round" opacity=".82"/></g><path d="M91 70v21m0 0-9-9m9 9 9-9" fill="none" stroke="#6daaff" stroke-width="4" stroke-linecap="round" stroke-linejoin="round"/></g></svg>
