<svg xmlns="http://www.w3.org/2000/svg" viewBox="0 0 128 128" width="128" height="128"><defs><linearGradient id="cloud" x2="0.3" y2="1"><stop stop-color="#f4fbff"/><stop offset="1" stop-color="#adcfee"/></linearGradient><linearGradient id="sun" x2=".7" y2="1"><stop stop-color="#ffe694"/><stop offset="1" stop-color="#ffb64c"/></linearGradient><linearGradient id="water" x2=".4" y2="1"><stop stop-color="#7ce3f5"/><stop offset="1" stop-color="#3697ef"/></linearGradient><linearGradient id="moon" x2=".6" y2="1"><stop stop-color="#f0f5ff"/><stop offset="1" stop-color="#a9bde8"/></linearGradient></defs><path d="M64 14v9M64 105v9M14 64h9M105 64h9M29 29l6 6M93 93l6 6M99 29l-6 6M35 93l-6 6" fill="none" stroke="#ffc85e" stroke-width="5" stroke-linecap="round" stroke-linejoin="round"/><circle cx="64" cy="64" r="28" fill="url(#sun)" stroke="#ffdf8c" stroke-width="2"/><path d="m82 68 26 9v17c0 12-13 21-26 26-13-5-26-14-26-26V77Z" fill="#3c95cf" stroke="#b5e5fb" stroke-width="3"/><path d="M73 93l7 7 14-16" fill="none" stroke="#e5f8ff" stroke-width="4" stroke-linecap="round" stroke-linejoin="round"/></svg>
