<svg xmlns="http://www.w3.org/2000/svg" width="270" height="400" viewBox="0 0 270 400">
  <defs>
    <g id="fork" fill="none" stroke-linecap="round" stroke-linejoin="round">
      <path d="m167 8-12 22 4 13-17 19 4 12-19 21 4 14-15 22 7 14-17 21 3 16-22 22 8 13-17 23 4 14-20 21 5 13-16 22 8 14-20 26 4 14-17 25"/>
      <path d="m142 62-25 9-11 18-24 9 1 15-19 13-9 20m76-37 25 19-2 17 22 14-5 18 14 14m-79-25-27 3-13 18-20 8-5 23m58-6 28 12 5 20 17 10 1 18m-53-1-24 13-3 14-19 9-5 20m30-4 23 10 1 16 17 16" stroke-width=".55"/>
      <path d="m82 98-17-2-9 10m98 39 18-4 13 13m-141 64-14 2-8 14m103 8 14-7 12 5m-120 63-17 1-6 12" stroke-width=".35"/>
    </g>
  </defs>
  <use href="#fork" stroke="#8bbdff" stroke-width="14" opacity=".025"/>
  <use href="#fork" stroke="#a8d4ff" stroke-width="6" opacity=".12"/>
  <use href="#fork" stroke="#d2eaff" stroke-width="2.8" opacity=".45"/>
  <use href="#fork" stroke="#f5fcff" stroke-width="1.1"/>
</svg>
