<svg xmlns="http://www.w3.org/2000/svg" viewBox="0 0 128 128" width="128" height="128"><defs><radialGradient id="sky-sun" cx=".32" cy=".26" r=".78"><stop stop-color="#fff3b0"/><stop offset=".42" stop-color="#ffda65"/><stop offset=".8" stop-color="#ffb32f"/><stop offset="1" stop-color="#f98b20"/></radialGradient></defs><g transform="translate(13 -4) scale(.78)"><g data-symbol="sun"><path d="M64 13v10M64 105v10M13 64h10M105 64h10M28 28l7 7M93 93l7 7M100 28l-7 7M35 93l-7 7" fill="none" stroke="#ffd067" stroke-width="4" stroke-linecap="round" stroke-linejoin="round"/><circle cx="64" cy="64" r="28" fill="url(#sky-sun)" stroke="none" stroke-width="2"/><path d="M43 59a22 22 0 0 1 22-17" fill="none" stroke="#fff6c0" stroke-width="2" stroke-linecap="round" opacity=".65"/></g></g><path d="M18 80h91M30 95h67M18 110h91" fill="none" stroke="#57769a" stroke-width="6" stroke-linecap="round" stroke-linejoin="round"/><path d="M18 80h91M30 95h67M18 110h91" fill="none" stroke="#cad5de" stroke-width="3.5" stroke-linecap="round" stroke-linejoin="round"/></svg>
