<svg xmlns="http://www.w3.org/2000/svg" viewBox="0 0 128 128" width="128" height="128" role="img"><defs>
  <linearGradient id="sun" x1=".16" y1=".08" x2=".87" y2=".95" objectBoundingBox="true"><stop stop-color="#fff9c6"/><stop offset=".47" stop-color="#ffd662"/><stop offset="1" stop-color="#ff9f49"/></linearGradient>
  <linearGradient id="moon" x1=".13" y1=".08" x2=".9" y2=".9" objectBoundingBox="true"><stop stop-color="#fffdf2"/><stop offset=".57" stop-color="#d5eaff"/><stop offset="1" stop-color="#75aaff"/></linearGradient>
  <linearGradient id="cloud" x1=".2" y1=".03" x2=".88" y2="1" objectBoundingBox="true"><stop stop-color="#ffffff"/><stop offset=".55" stop-color="#d9eaff"/><stop offset="1" stop-color="#8ab8f0"/></linearGradient>
  <linearGradient id="darkCloud" x1=".18" y1=".05" x2=".85" y2="1" objectBoundingBox="true"><stop stop-color="#dfebff"/><stop offset=".55" stop-color="#8faed9"/><stop offset="1" stop-color="#5078b3"/></linearGradient>
  <linearGradient id="rain" x1="0" y1="0" x2="0" y2="1" objectBoundingBox="true"><stop stop-color="#92ebff"/><stop offset="1" stop-color="#398bff"/></linearGradient>
  <filter id="soft" x="-25%" y="-25%" width="150%" height="160%"><feGaussianBlur in="SourceAlpha" stdDeviation="2" result="blur"/><feOffset in="blur" dy="3" result="offset"/><feComponentTransfer in="offset" result="shade"><feFuncA type="linear" slope=".22"/></feComponentTransfer><feMerge><feMergeNode in="shade"/><feMergeNode in="SourceGraphic"/></feMerge></filter>
  <mask id="crescent"><rect width="128" height="128" fill="white"/><circle cx="76" cy="38" r="24" fill="black"/></mask>
</defs><g><g transform="translate(-23 -21) scale(.9)"><g stroke="#ffc35f" stroke-width="4.5" stroke-linecap="round"><path d="M64 13v9M64 106v9M13 64h9M106 64h9M28 28l7 7M93 93l7 7M100 28l-7 7M35 93l-7 7"/></g><circle cx="64" cy="64" r="26" fill="url(#sun)" stroke="#ffdc88" stroke-width="1.5" filter="url(#soft)"/><circle cx="57" cy="55" r="12" fill="#fff9df" opacity=".32"/></g><path d="M27 96c-12 0-20-8-20-19 0-10 7-18 17-20 3-17 17-29 35-29 15 0 28 9 32 23 14-1 25 9 25 22 0 13-10 23-24 23H27z" fill="url(#cloud)" stroke="#f2f8ff" stroke-width="2" stroke-linejoin="round" filter="url(#soft)"/><path d="M24 64c4-16 17-26 35-26" fill="none" stroke="#fff" stroke-width="3" stroke-linecap="round" opacity=".48"/><g stroke="url(#rain)" stroke-width="5" stroke-linecap="round"><path d="M39 103l-5 11M66 103l-5 11M93 103l-5 11"/></g></g></svg>
