<svg xmlns="http://www.w3.org/2000/svg" viewBox="0 0 128 128" width="128" height="128"><defs><linearGradient id="cloud" x2="0.3" y2="1"><stop stop-color="#f4fbff"/><stop offset="1" stop-color="#adcfee"/></linearGradient><linearGradient id="sun" x2=".7" y2="1"><stop stop-color="#ffe694"/><stop offset="1" stop-color="#ffb64c"/></linearGradient><linearGradient id="water" x2=".4" y2="1"><stop stop-color="#7ce3f5"/><stop offset="1" stop-color="#3697ef"/></linearGradient><linearGradient id="moon" x2=".6" y2="1"><stop stop-color="#f0f5ff"/><stop offset="1" stop-color="#a9bde8"/></linearGradient></defs><g transform="translate(5 -3) scale(.92)"><path d="M33 86C20 86 12 78 12 67s8-19 19-20c4-17 17-26 32-24 15 1 25 11 28 24 14-1 25 8 25 20 0 11-9 19-22 19Z" fill="url(#cloud)" stroke="#e6f5ff" stroke-width="2.5" stroke-linejoin="round"/></g><path d="M37 94l-7 16" fill="none" stroke="#64cbf5" stroke-width="5" stroke-linecap="round" stroke-linejoin="round"/><g transform="translate(17 0) scale(.85 1)"><path d="M40 94v18m-8-13 16 9m0-9-16 9M88 94v18m-8-13 16 9m0-9-16 9" fill="none" stroke="#b6e9ff" stroke-width="3" stroke-linecap="round" stroke-linejoin="round"/></g></svg>
