<svg xmlns="http://www.w3.org/2000/svg" viewBox="0 0 128 128" width="128" height="128"><defs><radialGradient id="sky-cloud-dark" cx=".34" cy=".15" r=".92"><stop stop-color="#d8e6f0"/><stop offset=".42" stop-color="#b9cbdc"/><stop offset=".78" stop-color="#7d97b3"/><stop offset="1" stop-color="#536f91"/></radialGradient><radialGradient id="sky-highlight"><stop stop-color="#ffffff" stop-opacity=".7"/><stop offset="1" stop-color="#ffffff" stop-opacity="0"/></radialGradient><linearGradient id="sky-bolt" x2=".5" y2="1"><stop stop-color="#fff3b0"/><stop offset=".45" stop-color="#ffd04b"/><stop offset="1" stop-color="#ff9b23"/></linearGradient></defs><g transform="translate(7 -1) scale(.9)"><g data-symbol="cloud"><path d="M31 91C17 91 7 83 7 71c0-11 8-20 19-22 3-16 16-27 33-27 18 0 32 12 34 28 15-1 28 9 28 22 0 11-10 19-24 19Z" fill="url(#sky-cloud-dark)" stroke="#b4c7db" stroke-width=".8"/><ellipse cx="53" cy="48" rx="26" ry="22" fill="url(#sky-highlight)" opacity=".55"/><ellipse cx="30" cy="66" rx="16" ry="17" fill="url(#sky-highlight)" opacity=".45"/></g></g><g data-symbol="hail"><circle cx="32" cy="107" r="4.5" fill="#e4f3ff" stroke="#a4c9ee" stroke-width="1"/><circle cx="96" cy="107" r="4.5" fill="#e4f3ff" stroke="#a4c9ee" stroke-width="1"/></g><g data-symbol="lightning"><path d="M65 74 46 99h16l-7 23 31-35H70l7-13Z" fill="url(#sky-bolt)" stroke="#ffe7a0" stroke-width="1" stroke-linejoin="round"/></g></svg>
